<svg xmlns="http://www.w3.org/2000/svg" width="512" height="512" viewBox="0 0 512 512">
<rect width="512" height="512" rx="112" ry="112" fill="#0A0B0D"/>
<g fill="#57E223">
<g transform="translate(70.00 323.60) scale(0.19315 -0.19315)"><path d="M526 198H270L230 0H20L160 700H834Q862 700 885.5 688.5Q909 677 924.5 657.5Q940 638 947.0 613.0Q954 588 949 561L895 292Q887 251 855.0 224.5Q823 198 781 198H736L825 0H615ZM680 362Q688 362 694.5 367.0Q701 372 703 380L728 509Q730 520 723.5 528.5Q717 537 706 537H214L330 502L302 362Z"/></g>
<g transform="translate(263.53 323.60) scale(0.19315 -0.19315)"><path d="M746 0H20L160 700H787Q815 700 838.5 688.5Q862 677 877.5 657.5Q893 638 900.0 613.0Q907 588 901 561L879 448Q872 416 846.5 394.5Q821 373 787 373H802Q824 373 843.0 363.5Q862 354 874.5 338.5Q887 323 892.5 303.0Q898 283 894 262L860 94Q852 52 820.0 26.0Q788 0 746 0ZM660 169Q666 174 668 182L686 275Q688 286 681.5 294.5Q675 303 664 303H302L274 163H645Q653 163 660 169ZM649 443Q667 443 672 462L681 509Q683 520 676.0 528.5Q669 537 658 537H225L342 502L330 443Z"/></g>
</g>
</svg>
